<?xml version="1.0"?>
<svg xmlns="http://www.w3.org/2000/svg" xmlns:xlink="http://www.w3.org/1999/xlink" version="1.1" id="Capa_1" x="0px" y="0px" viewBox="0 0 58 58" style="enable-background:new 0 0 58 58;" xml:space="preserve" width="512px" height="512px" class=""><g><g>
	<rect x="1" y="2" style="fill:#F08002" width="56" height="14" data-original="#E0C6A9" class="" data-old_color="#F08003"/>
	<polyline style="fill:#110E0E" points="50,8 56,2 58,2 58,16 56,16 50,8  " data-original="#FFECD7" class="" data-old_color="#E50000"/>
	<polygon style="fill:#C96905" points="50,8 50,16 56,16  " data-original="#CCB297" class="" data-old_color="#C96A06"/>
	<polyline style="fill:#110E0E" points="8,8 2,2 0,2 0,16 2,16 8,8  " data-original="#FFECD7" class="" data-old_color="#E50000"/>
	<polygon style="fill:#C96905" points="8,8 8,16 2,16  " data-original="#CCB297" class="" data-old_color="#C96A06"/>
	<path style="fill:#000000" d="M54.258,56H3.742C1.675,56,0,54.325,0,52.258V16h58v36.258C58,54.325,56.325,56,54.258,56z" data-original="#F0D7B8" class="" data-old_color="#020202"/>
	<circle style="fill:#F49200" cx="17" cy="24" r="3" data-original="#72543A" class="" data-old_color="#F49201"/>
	<circle style="fill:#F49200" cx="41" cy="24" r="3" data-original="#72543A" class="" data-old_color="#F49201"/>
	<path style="fill:#F7F6F5" d="M29,43c-7.168,0-13-5.832-13-13v-6c0-0.553,0.447-1,1-1s1,0.447,1,1v6c0,6.065,4.935,11,11,11   s11-4.935,11-11v-6c0-0.553,0.447-1,1-1s1,0.447,1,1v6C42,37.168,36.168,43,29,43z" data-original="#CEB69E" class="active-path" data-old_color="#F4F2EF"/>
</g></g> </svg>
